<svg width="104" height="26" viewBox="0 0 104 26" fill="none" xmlns="http://www.w3.org/2000/svg">
<path d="M30.452 8.336C30.98 8.336 31.412 8.416 31.748 8.576C32.092 8.728 32.396 8.908 32.66 9.116C32.82 9.236 32.94 9.252 33.02 9.164C33.108 9.068 33.168 8.848 33.2 8.504H33.476C33.46 8.8 33.448 9.16 33.44 9.584C33.432 10.008 33.428 10.568 33.428 11.264H33.152C33.096 10.92 33.044 10.648 32.996 10.448C32.948 10.24 32.888 10.064 32.816 9.92C32.752 9.776 32.664 9.632 32.552 9.488C32.304 9.16 31.992 8.924 31.616 8.78C31.24 8.628 30.844 8.552 30.428 8.552C30.036 8.552 29.68 8.652 29.36 8.852C29.048 9.044 28.776 9.324 28.544 9.692C28.32 10.06 28.144 10.504 28.016 11.024C27.896 11.544 27.836 12.128 27.836 12.776C27.836 13.448 27.904 14.044 28.04 14.564C28.176 15.076 28.364 15.508 28.604 15.86C28.852 16.212 29.14 16.48 29.468 16.664C29.804 16.84 30.164 16.928 30.548 16.928C30.908 16.928 31.284 16.856 31.676 16.712C32.068 16.568 32.376 16.336 32.6 16.016C32.776 15.784 32.896 15.532 32.96 15.26C33.032 14.988 33.096 14.608 33.152 14.12H33.428C33.428 14.848 33.432 15.436 33.44 15.884C33.448 16.324 33.46 16.696 33.476 17H33.2C33.168 16.656 33.112 16.44 33.032 16.352C32.96 16.264 32.836 16.276 32.66 16.388C32.364 16.596 32.048 16.78 31.712 16.94C31.384 17.092 30.96 17.168 30.44 17.168C29.68 17.168 29.012 16.996 28.436 16.652C27.868 16.308 27.424 15.812 27.104 15.164C26.792 14.516 26.636 13.736 26.636 12.824C26.636 11.928 26.8 11.144 27.128 10.472C27.456 9.8 27.904 9.276 28.472 8.9C29.048 8.524 29.708 8.336 30.452 8.336ZM40.3937 8.336C41.1537 8.336 41.8177 8.508 42.3857 8.852C42.9617 9.196 43.4057 9.692 43.7177 10.34C44.0377 10.98 44.1977 11.76 44.1977 12.68C44.1977 13.576 44.0337 14.36 43.7057 15.032C43.3857 15.704 42.9377 16.228 42.3617 16.604C41.7857 16.98 41.1257 17.168 40.3817 17.168C39.6217 17.168 38.9537 16.996 38.3777 16.652C37.8097 16.308 37.3657 15.812 37.0457 15.164C36.7337 14.516 36.5777 13.736 36.5777 12.824C36.5777 11.928 36.7417 11.144 37.0697 10.472C37.3977 9.8 37.8457 9.276 38.4137 8.9C38.9897 8.524 39.6497 8.336 40.3937 8.336ZM40.3457 8.552C39.8257 8.552 39.3737 8.732 38.9897 9.092C38.6057 9.452 38.3057 9.948 38.0897 10.58C37.8817 11.212 37.7777 11.944 37.7777 12.776C37.7777 13.624 37.8937 14.364 38.1257 14.996C38.3657 15.62 38.6857 16.104 39.0857 16.448C39.4937 16.784 39.9417 16.952 40.4297 16.952C40.9497 16.952 41.4017 16.772 41.7857 16.412C42.1697 16.052 42.4657 15.556 42.6737 14.924C42.8897 14.284 42.9977 13.552 42.9977 12.728C42.9977 11.872 42.8777 11.132 42.6377 10.508C42.4057 9.884 42.0897 9.404 41.6897 9.068C41.2897 8.724 40.8417 8.552 40.3457 8.552ZM54.4625 8.504V8.744C54.1905 8.752 53.9825 8.792 53.8385 8.864C53.7025 8.936 53.6105 9.052 53.5625 9.212C53.5145 9.372 53.4905 9.6 53.4905 9.896V17.06C53.4425 17.06 53.3945 17.06 53.3465 17.06C53.3065 17.06 53.2625 17.06 53.2145 17.06L48.1745 9.272V15.608C48.1745 15.896 48.1985 16.124 48.2465 16.292C48.3025 16.452 48.4065 16.568 48.5585 16.64C48.7185 16.704 48.9545 16.744 49.2665 16.76V17C49.1225 16.984 48.9345 16.976 48.7025 16.976C48.4705 16.968 48.2505 16.964 48.0425 16.964C47.8425 16.964 47.6385 16.968 47.4305 16.976C47.2305 16.976 47.0625 16.984 46.9265 17V16.76C47.1985 16.744 47.4025 16.704 47.5385 16.64C47.6825 16.568 47.7785 16.452 47.8265 16.292C47.8745 16.124 47.8985 15.896 47.8985 15.608V9.776C47.8985 9.48 47.8745 9.264 47.8265 9.128C47.7785 8.984 47.6825 8.888 47.5385 8.84C47.4025 8.784 47.1985 8.752 46.9265 8.744V8.504C47.0625 8.512 47.2305 8.52 47.4305 8.528C47.6385 8.536 47.8425 8.54 48.0425 8.54C48.2185 8.54 48.3865 8.536 48.5465 8.528C48.7065 8.52 48.8505 8.512 48.9785 8.504L53.2145 15.032V9.896C53.2145 9.6 53.1865 9.372 53.1305 9.212C53.0825 9.052 52.9785 8.936 52.8185 8.864C52.6665 8.792 52.4345 8.752 52.1225 8.744V8.504C52.2665 8.512 52.4545 8.52 52.6865 8.528C52.9265 8.536 53.1465 8.54 53.3465 8.54C53.5545 8.54 53.7585 8.536 53.9585 8.528C54.1665 8.52 54.3345 8.512 54.4625 8.504ZM65.4691 17.276L65.6491 17.348C65.5531 17.676 65.4411 17.948 65.3131 18.164C65.1931 18.388 65.0531 18.572 64.8931 18.716C64.7411 18.852 64.5331 18.976 64.2691 19.088C64.0131 19.2 63.6811 19.256 63.2731 19.256C62.8491 19.256 62.4371 19.184 62.0371 19.04C61.6451 18.904 61.2371 18.736 60.8131 18.536C60.3891 18.336 59.9211 18.152 59.4091 17.984C59.3531 17.968 59.3011 17.952 59.2531 17.936C59.2051 17.92 59.1611 17.908 59.1211 17.9C58.9691 17.956 58.8051 18 58.6291 18.032C58.4531 18.064 58.2851 18.08 58.1251 18.08C57.9651 18.08 57.8331 18.06 57.7291 18.02C57.6251 17.98 57.5731 17.92 57.5731 17.84C57.5731 17.672 57.7891 17.588 58.2211 17.588C58.5011 17.588 58.8011 17.62 59.1211 17.684C59.4091 17.604 59.6571 17.512 59.8651 17.408C60.0731 17.312 60.2851 17.22 60.5011 17.132C60.7251 17.044 60.9931 16.988 61.3051 16.964L61.3171 17.156C61.0771 17.18 60.8691 17.224 60.6931 17.288C60.5171 17.36 60.3411 17.436 60.1651 17.516C59.9891 17.596 59.7811 17.672 59.5411 17.744C59.9411 17.824 60.3771 17.908 60.8491 17.996C61.3211 18.084 61.7771 18.16 62.2171 18.224C62.6571 18.288 63.0331 18.32 63.3451 18.32C63.9211 18.32 64.3731 18.236 64.7011 18.068C65.0371 17.9 65.2931 17.636 65.4691 17.276ZM60.9451 8.336C61.7051 8.336 62.3691 8.508 62.9371 8.852C63.5131 9.196 63.9571 9.692 64.2691 10.34C64.5891 10.98 64.7491 11.76 64.7491 12.68C64.7491 13.576 64.5851 14.36 64.2571 15.032C63.9371 15.704 63.4891 16.228 62.9131 16.604C62.3371 16.98 61.6771 17.168 60.9331 17.168C60.1731 17.168 59.5051 16.996 58.9291 16.652C58.3611 16.308 57.9171 15.812 57.5971 15.164C57.2851 14.516 57.1291 13.736 57.1291 12.824C57.1291 11.928 57.2931 11.144 57.6211 10.472C57.9491 9.8 58.3971 9.276 58.9651 8.9C59.5411 8.524 60.2011 8.336 60.9451 8.336ZM60.8971 8.552C60.3771 8.552 59.9251 8.732 59.5411 9.092C59.1571 9.452 58.8571 9.948 58.6411 10.58C58.4331 11.212 58.3291 11.944 58.3291 12.776C58.3291 13.624 58.4451 14.364 58.6771 14.996C58.9171 15.62 59.2371 16.104 59.6371 16.448C60.0451 16.784 60.4931 16.952 60.9811 16.952C61.5011 16.952 61.9531 16.772 62.3371 16.412C62.7211 16.052 63.0171 15.556 63.2251 14.924C63.4411 14.284 63.5491 13.552 63.5491 12.728C63.5491 11.872 63.4291 11.132 63.1891 10.508C62.9571 9.884 62.6411 9.404 62.2411 9.068C61.8411 8.724 61.3931 8.552 60.8971 8.552ZM74.8573 8.504V8.744C74.5853 8.752 74.3773 8.792 74.2333 8.864C74.0973 8.936 74.0053 9.052 73.9573 9.212C73.9093 9.372 73.8853 9.6 73.8853 9.896V13.508C73.8853 14.068 73.8493 14.556 73.7773 14.972C73.7053 15.388 73.5773 15.748 73.3933 16.052C73.1933 16.388 72.9013 16.66 72.5173 16.868C72.1333 17.068 71.6933 17.168 71.1973 17.168C70.8133 17.168 70.4453 17.12 70.0933 17.024C69.7493 16.936 69.4453 16.768 69.1813 16.52C68.9493 16.296 68.7653 16.06 68.6293 15.812C68.5013 15.564 68.4133 15.26 68.3653 14.9C68.3173 14.54 68.2933 14.088 68.2933 13.544V9.776C68.2933 9.48 68.2693 9.264 68.2213 9.128C68.1733 8.984 68.0773 8.888 67.9333 8.84C67.7973 8.784 67.5933 8.752 67.3213 8.744V8.504C67.4893 8.512 67.7093 8.52 67.9813 8.528C68.2533 8.536 68.5453 8.54 68.8573 8.54C69.1373 8.54 69.4133 8.536 69.6853 8.528C69.9653 8.52 70.1973 8.512 70.3813 8.504V8.744C70.1093 8.752 69.9013 8.784 69.7573 8.84C69.6213 8.888 69.5293 8.984 69.4813 9.128C69.4333 9.264 69.4093 9.48 69.4093 9.776V13.748C69.4093 14.156 69.4293 14.544 69.4693 14.912C69.5093 15.272 69.5893 15.592 69.7093 15.872C69.8373 16.144 70.0293 16.36 70.2853 16.52C70.5413 16.672 70.8813 16.748 71.3053 16.748C71.9133 16.748 72.3813 16.616 72.7093 16.352C73.0453 16.08 73.2773 15.708 73.4053 15.236C73.5413 14.764 73.6093 14.232 73.6093 13.64V9.896C73.6093 9.6 73.5733 9.372 73.5013 9.212C73.4373 9.052 73.3253 8.936 73.1653 8.864C73.0053 8.792 72.7893 8.752 72.5173 8.744V8.504C72.6613 8.512 72.8493 8.52 73.0813 8.528C73.3213 8.536 73.5413 8.54 73.7413 8.54C73.9493 8.54 74.1533 8.536 74.3533 8.528C74.5613 8.52 74.7293 8.512 74.8573 8.504ZM83.349 8.504C83.317 8.784 83.293 9.056 83.277 9.32C83.269 9.584 83.265 9.784 83.265 9.92C83.265 10.064 83.269 10.204 83.277 10.34C83.285 10.468 83.293 10.576 83.301 10.664H83.025C82.977 10.192 82.909 9.82 82.821 9.548C82.733 9.268 82.581 9.072 82.365 8.96C82.157 8.84 81.841 8.78 81.417 8.78H80.421C80.149 8.78 79.941 8.804 79.797 8.852C79.661 8.892 79.569 8.984 79.521 9.128C79.473 9.264 79.449 9.48 79.449 9.776V15.728C79.449 16.016 79.473 16.232 79.521 16.376C79.569 16.52 79.661 16.616 79.797 16.664C79.941 16.704 80.149 16.724 80.421 16.724H81.297C81.801 16.724 82.181 16.656 82.437 16.52C82.701 16.384 82.889 16.164 83.001 15.86C83.121 15.548 83.209 15.128 83.265 14.6H83.541C83.517 14.816 83.505 15.104 83.505 15.464C83.505 15.616 83.509 15.836 83.517 16.124C83.533 16.404 83.557 16.696 83.589 17C83.181 16.984 82.721 16.976 82.209 16.976C81.697 16.968 81.241 16.964 80.841 16.964C80.665 16.964 80.437 16.964 80.157 16.964C79.885 16.964 79.589 16.968 79.269 16.976C78.949 16.976 78.625 16.98 78.297 16.988C77.969 16.988 77.657 16.992 77.361 17V16.76C77.633 16.744 77.837 16.712 77.973 16.664C78.117 16.616 78.213 16.52 78.261 16.376C78.309 16.232 78.333 16.016 78.333 15.728V9.776C78.333 9.48 78.309 9.264 78.261 9.128C78.213 8.984 78.117 8.888 77.973 8.84C77.837 8.784 77.633 8.752 77.361 8.744V8.504C77.657 8.512 77.969 8.52 78.297 8.528C78.625 8.528 78.949 8.532 79.269 8.54C79.589 8.54 79.885 8.54 80.157 8.54C80.437 8.54 80.665 8.54 80.841 8.54C81.209 8.54 81.625 8.54 82.089 8.54C82.561 8.532 82.981 8.52 83.349 8.504ZM81.285 12.608C81.285 12.608 81.285 12.648 81.285 12.728C81.285 12.808 81.285 12.848 81.285 12.848H79.089C79.089 12.848 79.089 12.808 79.089 12.728C79.089 12.648 79.089 12.608 79.089 12.608H81.285ZM81.633 11.024C81.601 11.48 81.585 11.828 81.585 12.068C81.593 12.308 81.597 12.528 81.597 12.728C81.597 12.928 81.601 13.148 81.609 13.388C81.617 13.628 81.637 13.976 81.669 14.432H81.393C81.361 14.176 81.321 13.928 81.273 13.688C81.233 13.44 81.137 13.24 80.985 13.088C80.841 12.928 80.593 12.848 80.241 12.848V12.608C80.505 12.608 80.705 12.556 80.841 12.452C80.985 12.34 81.089 12.2 81.153 12.032C81.217 11.864 81.261 11.692 81.285 11.516C81.309 11.332 81.333 11.168 81.357 11.024H81.633ZM88.9215 8.372C89.3215 8.372 89.6255 8.42 89.8335 8.516C90.0415 8.604 90.2255 8.704 90.3855 8.816C90.4815 8.872 90.5575 8.916 90.6135 8.948C90.6775 8.972 90.7375 8.984 90.7935 8.984C90.8735 8.984 90.9295 8.94 90.9615 8.852C91.0015 8.764 91.0335 8.632 91.0575 8.456H91.3335C91.3255 8.592 91.3135 8.756 91.2975 8.948C91.2895 9.132 91.2815 9.38 91.2735 9.692C91.2735 9.996 91.2735 10.4 91.2735 10.904H90.9975C90.9735 10.52 90.8895 10.152 90.7455 9.8C90.6015 9.448 90.3895 9.16 90.1095 8.936C89.8375 8.712 89.4775 8.6 89.0295 8.6C88.6055 8.6 88.2535 8.728 87.9735 8.984C87.7015 9.24 87.5655 9.576 87.5655 9.992C87.5655 10.352 87.6575 10.656 87.8415 10.904C88.0255 11.144 88.2695 11.364 88.5735 11.564C88.8855 11.756 89.2215 11.964 89.5815 12.188C89.9975 12.444 90.3655 12.7 90.6855 12.956C91.0135 13.204 91.2695 13.48 91.4535 13.784C91.6455 14.088 91.7415 14.456 91.7415 14.888C91.7415 15.4 91.6255 15.824 91.3935 16.16C91.1615 16.496 90.8535 16.748 90.4695 16.916C90.0855 17.084 89.6615 17.168 89.1975 17.168C88.7735 17.168 88.4375 17.12 88.1895 17.024C87.9415 16.928 87.7295 16.828 87.5535 16.724C87.3775 16.612 87.2415 16.556 87.1455 16.556C87.0655 16.556 87.0055 16.6 86.9655 16.688C86.9335 16.776 86.9055 16.908 86.8815 17.084H86.6055C86.6215 16.916 86.6295 16.72 86.6295 16.496C86.6375 16.264 86.6415 15.964 86.6415 15.596C86.6495 15.228 86.6535 14.764 86.6535 14.204H86.9295C86.9615 14.684 87.0495 15.132 87.1935 15.548C87.3455 15.964 87.5735 16.3 87.8775 16.556C88.1895 16.804 88.6015 16.928 89.1135 16.928C89.3775 16.928 89.6255 16.876 89.8575 16.772C90.0975 16.66 90.2935 16.488 90.4455 16.256C90.5975 16.016 90.6735 15.708 90.6735 15.332C90.6735 15.004 90.5935 14.72 90.4335 14.48C90.2815 14.232 90.0655 14.004 89.7855 13.796C89.5055 13.58 89.1775 13.36 88.8015 13.136C88.4255 12.904 88.0735 12.668 87.7455 12.428C87.4175 12.188 87.1535 11.912 86.9535 11.6C86.7615 11.28 86.6655 10.896 86.6655 10.448C86.6655 9.976 86.7695 9.588 86.9775 9.284C87.1935 8.972 87.4735 8.744 87.8175 8.6C88.1615 8.448 88.5295 8.372 88.9215 8.372ZM101.114 8.504C101.082 8.808 101.058 9.104 101.042 9.392C101.034 9.672 101.03 9.888 101.03 10.04C101.03 10.232 101.034 10.412 101.042 10.58C101.05 10.748 101.058 10.896 101.066 11.024H100.79C100.734 10.464 100.658 10.024 100.562 9.704C100.466 9.376 100.298 9.14 100.058 8.996C99.818 8.852 99.446 8.78 98.942 8.78H98.294V15.608C98.294 15.928 98.322 16.168 98.378 16.328C98.442 16.488 98.562 16.596 98.738 16.652C98.914 16.708 99.17 16.744 99.506 16.76V17C99.298 16.984 99.034 16.976 98.714 16.976C98.394 16.968 98.07 16.964 97.742 16.964C97.382 16.964 97.042 16.968 96.722 16.976C96.41 16.976 96.158 16.984 95.966 17V16.76C96.302 16.744 96.558 16.708 96.734 16.652C96.91 16.596 97.026 16.488 97.082 16.328C97.146 16.168 97.178 15.928 97.178 15.608V8.78H96.53C96.034 8.78 95.662 8.852 95.414 8.996C95.174 9.14 95.006 9.376 94.91 9.704C94.814 10.024 94.738 10.464 94.682 11.024H94.406C94.422 10.896 94.43 10.748 94.43 10.58C94.438 10.412 94.442 10.232 94.442 10.04C94.442 9.888 94.434 9.672 94.418 9.392C94.41 9.104 94.39 8.808 94.358 8.504C94.694 8.512 95.058 8.52 95.45 8.528C95.85 8.536 96.25 8.54 96.65 8.54C97.05 8.54 97.414 8.54 97.742 8.54C98.07 8.54 98.43 8.54 98.822 8.54C99.222 8.54 99.622 8.536 100.022 8.528C100.422 8.52 100.786 8.512 101.114 8.504Z" fill="#555248"/>
<path d="M21.6818 15.5344C21.1028 17.3757 19.8142 19.6577 17.2917 21.0103C15.7282 21.8487 14.0306 22.1833 12.3831 22.071L12.4257 3.94291C12.4778 3.93862 12.5301 3.93472 12.5825 3.93123C13.0681 3.92769 13.6665 3.94932 14.28 4.01902C14.5536 4.05012 14.8247 4.0902 15.0863 4.1403C15.6587 4.27589 16.2174 4.46652 16.754 4.70967C18.5103 5.50552 20.0281 6.86323 21.0099 8.69434C21.8203 10.2056 22.1598 11.8419 22.0803 13.437C22.0472 13.9746 21.9268 14.7156 21.6818 15.5344ZM11.4254 4.07488L11.3834 21.947C8.74393 21.4708 6.34092 19.838 4.97576 17.292C2.60158 12.8643 4.2663 7.35026 8.694 4.97607C9.26708 4.66878 10.2463 4.28822 11.4254 4.07488Z" stroke="url(#paint0_linear_0_495)"/>
<defs>
<linearGradient id="paint0_linear_0_495" x1="3.75599" y1="11.7235" x2="23.9646" y2="12.9922" gradientUnits="userSpaceOnUse">
<stop offset="0.288448" stop-color="#555248"/>
<stop offset="0.780176" stop-color="#1B1A17" stop-opacity="0"/>
</linearGradient>
</defs>
</svg>
